<?xml version="1.0" standalone="no"?>
<!DOCTYPE svg PUBLIC "-//W3C//DTD SVG 20010904//EN"
 "http://www.w3.org/TR/2001/REC-SVG-20010904/DTD/svg10.dtd">
<svg version="1.0" xmlns="http://www.w3.org/2000/svg"
 width="369.000000pt" height="369.000000pt" viewBox="0 0 369.000000 369.000000"
 preserveAspectRatio="xMidYMid meet">
<metadata>
Created by potrace 1.14, written by Peter Selinger 2001-2017
</metadata>
<g transform="translate(0.000000,369.000000) scale(0.100000,-0.100000)"
fill="#000000" stroke="none">
<path d="M0 1845 l0 -1845 1845 0 1845 0 0 1845 0 1845 -1845 0 -1845 0 0
-1845z m1890 1660 c18 -33 38 -67 45 -75 7 -8 21 -31 30 -50 24 -51 56 -107
95 -170 41 -65 63 -102 87 -150 10 -19 35 -61 56 -93 20 -31 37 -62 37 -67 0
-16 16 -19 41 -7 13 7 51 21 84 31 33 10 65 22 70 26 6 3 37 15 70 25 33 11
65 22 70 26 6 3 35 14 65 24 30 9 69 23 87 31 17 8 36 14 42 14 6 0 30 9 54
19 23 11 67 27 97 36 30 10 61 22 68 28 7 5 15 8 18 5 6 -7 -14 -147 -26 -173
-4 -11 -16 -78 -25 -150 -10 -71 -21 -134 -25 -140 -4 -5 -15 -66 -24 -135
-10 -69 -22 -133 -27 -142 -15 -29 -11 -58 9 -58 10 0 22 -4 27 -9 6 -5 35
-16 65 -26 30 -9 74 -25 97 -36 24 -10 48 -19 55 -19 7 0 24 -6 38 -13 14 -7
52 -21 85 -31 33 -10 65 -22 70 -25 6 -4 37 -15 70 -26 33 -10 65 -22 70 -25
6 -4 37 -15 70 -25 97 -29 97 -30 -9 -123 -52 -45 -98 -82 -101 -82 -4 0 -74
-59 -156 -130 -82 -71 -152 -130 -156 -130 -5 -1 -30 -21 -57 -45 l-49 -43 24
-39 c29 -47 52 -86 79 -138 12 -22 34 -60 50 -85 16 -25 36 -58 45 -75 9 -16
28 -51 43 -76 27 -46 51 -87 99 -169 14 -25 34 -61 45 -80 l18 -35 -404 -3
-405 -2 -7 -58 c-3 -31 -10 -61 -14 -67 -4 -5 -15 -66 -25 -135 -9 -69 -21
-134 -26 -145 -4 -11 -15 -72 -24 -135 -9 -63 -20 -124 -25 -135 -5 -11 -12
-42 -15 -69 l-7 -48 -21 19 c-124 109 -244 211 -253 214 -7 2 -76 60 -154 129
-79 68 -154 130 -168 137 -29 16 -17 24 -168 -109 -62 -54 -115 -98 -119 -98
-4 0 -71 -56 -150 -125 -79 -69 -148 -125 -153 -125 -5 0 -15 -7 -22 -15 -22
-27 -35 10 -55 155 -10 74 -21 140 -25 145 -4 6 -15 66 -25 135 -9 69 -21 134
-26 145 -4 11 -13 57 -20 103 l-11 82 -404 0 c-222 0 -404 2 -404 5 0 7 32 65
65 120 13 22 34 58 45 80 12 22 34 60 50 85 16 25 37 61 48 80 57 104 72 130
96 168 14 23 26 44 26 47 0 2 16 30 36 60 28 45 33 59 23 71 -6 8 -16 14 -21
14 -5 0 -76 59 -158 130 -82 72 -151 130 -155 130 -3 0 -64 50 -136 112 -100
87 -126 115 -117 123 7 7 40 20 73 30 33 11 65 22 70 26 6 3 35 14 65 24 30 9
69 23 87 31 17 8 36 14 42 14 6 0 30 9 54 19 23 11 60 25 82 31 22 7 54 18 70
25 17 7 53 20 80 30 81 28 105 39 105 50 0 28 -33 243 -41 260 -4 11 -15 72
-24 135 -9 63 -20 124 -25 135 -10 22 -43 246 -37 251 2 2 22 -5 45 -16 22
-11 47 -20 54 -20 7 0 24 -6 38 -13 14 -7 52 -21 85 -31 33 -10 65 -22 70 -25
6 -4 37 -15 70 -26 33 -10 65 -22 70 -25 6 -4 37 -16 70 -26 33 -10 71 -24 85
-31 14 -7 31 -13 38 -13 7 0 32 -9 54 -20 60 -29 71 -26 104 28 16 26 35 56
41 67 7 11 23 38 35 59 13 22 35 60 50 85 15 25 32 57 40 71 7 14 27 48 45 77
18 29 33 55 33 58 0 3 16 31 35 61 19 30 35 56 35 59 0 15 64 105 70 98 4 -4
22 -35 40 -68z"/>
<path d="M1826 3107 c-9 -15 -24 -39 -33 -54 -10 -16 -25 -41 -34 -58 -56
-104 -72 -130 -94 -163 -14 -20 -25 -40 -25 -44 0 -4 -15 -31 -33 -60 -18 -29
-39 -65 -46 -80 -16 -32 -29 -34 -74 -14 -18 8 -54 22 -82 31 -27 10 -63 23
-80 30 -16 7 -48 18 -70 25 -22 7 -58 21 -81 31 -22 10 -46 19 -53 19 -7 0
-31 8 -54 19 -83 37 -111 35 -88 -6 6 -10 18 -76 27 -147 9 -71 20 -137 25
-145 7 -13 39 -228 39 -261 0 -5 -19 -15 -42 -22 -24 -6 -52 -17 -63 -24 -11
-6 -42 -17 -68 -24 -27 -7 -65 -21 -85 -32 -20 -10 -43 -18 -52 -18 -9 0 -24
-6 -35 -13 -11 -8 -42 -20 -70 -27 -27 -7 -66 -22 -85 -32 -19 -10 -42 -18
-50 -18 -14 0 97 -109 113 -110 7 0 189 -155 285 -242 46 -42 48 -56 12 -108
-29 -42 -54 -83 -73 -120 -25 -49 -47 -86 -85 -148 -17 -29 -32 -54 -32 -57 0
-3 -16 -29 -35 -59 -58 -92 -76 -86 263 -86 l297 0 12 -27 c6 -16 18 -82 27
-148 9 -66 21 -129 25 -140 5 -11 14 -60 20 -110 16 -122 22 -155 30 -155 3 0
48 36 98 80 50 44 94 80 98 80 4 0 54 42 112 93 157 138 146 131 181 110 16
-10 93 -73 170 -140 78 -68 144 -123 147 -123 4 0 32 -22 63 -50 l56 -50 12
28 c7 15 20 86 29 157 10 72 20 135 25 140 4 6 13 53 19 105 7 52 14 107 17
123 l6 27 304 0 c167 0 304 2 304 4 0 13 -34 81 -60 119 -16 25 -30 48 -30 51
0 4 -16 32 -35 62 -19 30 -35 57 -35 60 0 3 -16 30 -35 60 -19 30 -35 58 -35
62 0 4 -14 27 -30 52 -16 25 -30 52 -30 60 0 15 78 100 93 100 5 0 73 56 152
125 79 69 148 125 153 125 11 0 47 39 41 44 -11 10 -99 45 -139 56 -25 7 -50
16 -56 21 -6 5 -34 16 -62 24 -27 8 -63 22 -79 30 -15 8 -35 15 -43 15 -9 0
-32 8 -52 18 -20 11 -57 25 -82 32 -37 10 -46 17 -46 34 0 12 4 26 9 31 4 6
16 69 26 140 9 72 21 135 25 140 4 6 12 55 19 110 7 55 15 113 18 128 5 27 4
28 -23 21 -16 -3 -38 -12 -49 -19 -11 -7 -45 -19 -76 -28 -31 -9 -69 -24 -85
-32 -16 -8 -35 -15 -42 -15 -7 0 -31 -9 -55 -19 -23 -11 -67 -27 -97 -36 -30
-10 -59 -21 -65 -25 -5 -4 -23 -10 -39 -14 -32 -8 -44 3 -77 69 -34 66 -63
117 -102 178 -20 31 -37 61 -37 65 0 4 -14 27 -30 52 -17 25 -37 59 -44 75 -8
17 -20 39 -29 49 -14 19 -15 19 -31 -7z"/>
</g>
</svg>
